<svg xmlns="http://www.w3.org/2000/svg" width="680" height="300" viewBox="0 0 680 300">
  <rect width="680" height="300" rx="12" fill="#0d1117" stroke="#30363d" stroke-width="1"/>
  <rect width="680" height="38" rx="12" fill="#161b22"/>
  <rect y="26" width="680" height="12" fill="#161b22"/>
  <circle cx="22" cy="19" r="6" fill="#ff5f56"/>
  <circle cx="44" cy="19" r="6" fill="#ffbd2e"/>
  <circle cx="66" cy="19" r="6" fill="#27ca40"/>
  <text x="340" y="24" text-anchor="middle" font-family="JetBrains Mono, Consolas, monospace" font-size="11" fill="#484f58">ihsan@polban ~ — zsh</text>
  <g font-family="JetBrains Mono, Consolas, monospace" font-size="13">
    <text x="20" y="66" fill="#27ca40">❯</text>
    <text x="38" y="66" fill="#c9d1d9">cat profile.json</text>
    <text x="20" y="94" fill="#e3b341">{</text>
    <text x="36" y="116" fill="#79c0ff">"name"</text><text x="36" y="116" fill="#79c0ff" dx="66"> :</text><text x="36" y="116" fill="#a5d6ff" dx="82"> "Muhammad Ihsan Ramadhan"</text><text x="36" y="116" fill="#484f58" dx="352">,</text>
    <text x="36" y="138" fill="#79c0ff">"role"</text><text x="36" y="138" fill="#79c0ff" dx="66"> :</text><text x="36" y="138" fill="#7ee787" dx="82"> "Student"</text><text x="36" y="138" fill="#484f58" dx="180">,</text>
    <text x="36" y="160" fill="#79c0ff">"campus"</text><text x="36" y="160" fill="#79c0ff" dx="84"> :</text><text x="36" y="160" fill="#a5d6ff" dx="100"> "Bandung State Polytechnic"</text><text x="36" y="160" fill="#484f58" dx="348">,</text>
    <text x="36" y="182" fill="#79c0ff">"location"</text><text x="36" y="182" fill="#79c0ff" dx="102"> :</text><text x="36" y="182" fill="#a5d6ff" dx="118"> "Bandar Lampung, Indonesia"</text><text x="36" y="182" fill="#484f58" dx="338">,</text>
    <text x="36" y="204" fill="#79c0ff">"interests"</text><text x="36" y="204" fill="#79c0ff" dx="108"> :</text><text x="36" y="204" fill="#ffa657" dx="124"> ["full-stack dev", "game dev", "QA"]</text><text x="36" y="204" fill="#484f58" dx="438">,</text>
    <text x="36" y="226" fill="#79c0ff">"motto"</text><text x="36" y="226" fill="#79c0ff" dx="72"> :</text><text x="36" y="226" fill="#ff7b72" dx="88"> "control the controllables"</text>
    <text x="20" y="248" fill="#e3b341">}</text>
    <text x="20" y="276" fill="#27ca40">❯</text>
    <rect x="38" y="263" width="9" height="15" fill="#27ca40">
      <animate attributeName="opacity" values="1;0;1" dur="1.1s" repeatCount="indefinite"/>
    </rect>
  </g>
</svg>
